<?xml version="1.0" standalone="no"?><!DOCTYPE svg PUBLIC "-//W3C//DTD SVG 1.1//EN" "http://www.w3.org/Graphics/SVG/1.1/DTD/svg11.dtd"><svg t="1706878356844" class="icon" viewBox="0 0 1024 1024" version="1.1" xmlns="http://www.w3.org/2000/svg" p-id="4219" width="36" height="36" xmlns:xlink="http://www.w3.org/1999/xlink"><path d="M877.216 491.808M907.712 231.616c-8.48 0-16.96-3.232-23.392-9.696l-99.328-99.328c-12.96-12.96-12.96-33.856 0-46.816 12.928-12.928 33.856-12.928 46.816 0l99.328 99.328c12.96 12.928 12.96 33.856 0 46.816C924.672 228.352 916.192 231.616 907.712 231.616L907.712 231.616zM114.368 229.568c-8.48 0-16.96-3.232-23.424-9.696-12.928-12.928-12.928-33.856 0-46.816l99.328-99.328c12.928-12.96 33.856-12.96 46.816 0 12.928 12.928 12.928 33.856 0 46.816L137.76 219.84C131.328 226.336 122.848 229.568 114.368 229.568L114.368 229.568zM732.48 354.336c12.928-12.928 12.928-33.856 0-46.816-12.96-12.928-33.888-12.928-46.816 0l-132.448 132.448c-0.096 0.064-0.096 0.192-0.192 0.288-13.024-6.208-27.296-9.984-42.624-9.984-15.296 0-29.664 3.776-42.624 9.984-0.064-0.096-0.096-0.192-0.192-0.288l-99.328-99.328c-12.928-12.928-33.856-12.928-46.816 0-12.928 12.928-12.928 33.856 0 46.816l99.328 99.328c0.064 0.064 0.192 0.096 0.288 0.192-6.208 12.928-9.984 27.296-9.984 42.624 0 54.752 44.576 99.328 99.328 99.328 54.752 0 99.328-44.608 99.328-99.328 0-15.296-3.776-29.664-10.016-42.624 0.096-0.064 0.192-0.096 0.288-0.192L732.48 354.336 732.48 354.336zM510.432 562.72c-18.24 0-33.12-14.88-33.12-33.12 0-18.24 14.88-33.12 33.12-33.12 18.24 0 33.12 14.88 33.12 33.12C543.52 547.872 528.672 562.72 510.432 562.72L510.432 562.72zM818.624 829.376c75.456-77.504 122.208-183.296 122.208-299.808 0-237.312-193.088-430.4-430.432-430.4S80 292.256 80 529.6c0 117.312 47.296 223.68 123.648 301.408l-50.592 76.544c-10.048 15.264-5.888 35.808 9.376 45.856 5.632 3.712 11.968 5.504 18.208 5.504 10.752 0 21.28-5.152 27.648-14.848l45.888-69.504C325.856 927.936 414.368 960 510.432 960c96.8 0 185.984-32.512 257.952-86.72l46.944 68.864c6.4 9.376 16.832 14.464 27.392 14.464 6.432 0 12.928-1.92 18.592-5.792 15.136-10.336 19.008-30.912 8.736-45.984L818.624 829.376 818.624 829.376zM146.208 529.6c0-200.8 163.392-364.192 364.192-364.192 200.768 0 364.192 163.392 364.192 364.192 0 200.8-163.424 364.192-364.192 364.192C309.6 893.824 146.208 730.4 146.208 529.6L146.208 529.6zM146.208 529.6" fill="#bfbfbf" p-id="4220"></path></svg>